<svg width="1920" height="2185" viewBox="0 0 1920 2185" fill="none" xmlns="http://www.w3.org/2000/svg">
<g clip-path="url(#clip0_3872_2)">
<rect width="1920" height="2185" fill="white"/>
<path d="M1919.85 700.292L1892.39 716.146L1892.39 684.438L1919.85 700.292Z" fill="#F7991C"/>
<path d="M1889.61 672.277L1862.15 688.131L1862.15 656.423L1889.61 672.277Z" fill="#F7991C"/>
<path d="M1919.85 196.409L1892.39 212.263L1892.39 180.555L1919.85 196.409Z" fill="#F7991C"/>
<path d="M1919.85 924.409L1892.39 940.263L1892.39 908.555L1919.85 924.409Z" fill="#F7991C"/>
<path d="M1889.61 168.394L1862.15 184.248L1862.15 152.541L1889.61 168.394Z" fill="#F7991C"/>
<path d="M1889.61 896.394L1862.15 912.248L1862.15 880.541L1889.61 896.394Z" fill="#F7991C"/>
<path d="M1919.85 84.3505L1892.39 100.204L1892.39 68.4966L1919.85 84.3505Z" fill="#F7991C"/>
<path d="M1919.85 812.351L1892.39 828.204L1892.39 796.497L1919.85 812.351Z" fill="#F7991C"/>
<path d="M1889.61 56.3359L1862.15 72.1898L1862.15 40.4819L1889.61 56.3359Z" fill="#F7991C"/>
<path d="M1889.61 784.336L1862.15 800.19L1862.15 768.482L1889.61 784.336Z" fill="#F7991C"/>
<path d="M1919.85 308.467L1892.39 324.321L1892.39 292.613L1919.85 308.467Z" fill="#F7991C"/>
<path d="M1919.85 1036.47L1892.39 1052.32L1892.39 1020.61L1919.85 1036.47Z" fill="#F7991C"/>
<path d="M1919.85 1484.32L1892.39 1500.18L1892.39 1468.47L1919.85 1484.32Z" fill="#F7991C"/>
<path d="M1889.61 280.453L1862.15 296.307L1862.15 264.599L1889.61 280.453Z" fill="#F7991C"/>
<path d="M1889.61 1008.45L1862.15 1024.31L1862.15 992.599L1889.61 1008.45Z" fill="#F7991C"/>
<path d="M1889.61 1456.31L1862.15 1472.16L1862.15 1440.45L1889.61 1456.31Z" fill="#F7991C"/>
<path d="M1919.85 420.526L1892.39 436.38L1892.39 404.672L1919.85 420.526Z" fill="#F7991C"/>
<path d="M1919.85 1148.53L1892.39 1164.38L1892.39 1132.67L1919.85 1148.53Z" fill="#F7991C"/>
<path d="M1919.85 1596.38L1892.39 1612.23L1892.39 1580.53L1919.85 1596.38Z" fill="#F7991C"/>
<path d="M1919.85 1876.29L1892.39 1892.15L1892.39 1860.44L1919.85 1876.29Z" fill="#F7991C"/>
<path d="M1889.61 392.511L1862.15 408.365L1862.15 376.657L1889.61 392.511Z" fill="#F7991C"/>
<path d="M1889.61 1120.51L1862.15 1136.37L1862.15 1104.66L1889.61 1120.51Z" fill="#F7991C"/>
<path d="M1889.61 1568.37L1862.15 1584.22L1862.15 1552.51L1889.61 1568.37Z" fill="#F7991C"/>
<path d="M1889.61 1848.28L1862.15 1864.13L1862.15 1832.42L1889.61 1848.28Z" fill="#F7991C"/>
<path d="M1919.85 28.3212L1892.39 44.1752L1892.39 12.4673L1919.85 28.3212Z" fill="#F7991C"/>
<path d="M1919.85 756.321L1892.39 772.175L1892.39 740.467L1919.85 756.321Z" fill="#F7991C"/>
<path d="M1889.61 0.30657L1862.15 16.1605L1862.15 -15.5474L1889.61 0.30657Z" fill="#F7991C"/>
<path d="M1889.61 728.307L1862.15 744.161L1862.15 712.453L1889.61 728.307Z" fill="#F7991C"/>
<path d="M1919.85 252.438L1892.39 268.292L1892.39 236.584L1919.85 252.438Z" fill="#F7991C"/>
<path d="M1919.85 980.438L1892.39 996.292L1892.39 964.584L1919.85 980.438Z" fill="#F7991C"/>
<path d="M1919.85 1428.29L1892.39 1444.15L1892.39 1412.44L1919.85 1428.29Z" fill="#F7991C"/>
<path d="M1889.61 224.423L1862.15 240.277L1862.15 208.569L1889.61 224.423Z" fill="#F7991C"/>
<path d="M1889.61 952.423L1862.15 968.277L1862.15 936.569L1889.61 952.423Z" fill="#F7991C"/>
<path d="M1889.61 1400.28L1862.15 1416.13L1862.15 1384.42L1889.61 1400.28Z" fill="#F7991C"/>
<path d="M1919.85 140.38L1892.39 156.234L1892.39 124.526L1919.85 140.38Z" fill="#F7991C"/>
<path d="M1919.85 868.38L1892.39 884.234L1892.39 852.526L1919.85 868.38Z" fill="#F7991C"/>
<path d="M1889.61 112.365L1862.15 128.219L1862.15 96.5112L1889.61 112.365Z" fill="#F7991C"/>
<path d="M1889.61 840.365L1862.15 856.219L1862.15 824.511L1889.61 840.365Z" fill="#F7991C"/>
<path d="M1919.85 364.497L1892.39 380.35L1892.39 348.643L1919.85 364.497Z" fill="#F7991C"/>
<path d="M1919.85 1092.5L1892.39 1108.35L1892.39 1076.64L1919.85 1092.5Z" fill="#F7991C"/>
<path d="M1919.85 1540.35L1892.39 1556.2L1892.39 1524.5L1919.85 1540.35Z" fill="#F7991C"/>
<path d="M1889.61 336.482L1862.15 352.336L1862.15 320.628L1889.61 336.482Z" fill="#F7991C"/>
<path d="M1889.61 1064.48L1862.15 1080.34L1862.15 1048.63L1889.61 1064.48Z" fill="#F7991C"/>
<path d="M1889.61 1512.34L1862.15 1528.19L1862.15 1496.48L1889.61 1512.34Z" fill="#F7991C"/>
<path d="M1919.85 476.555L1892.39 492.409L1892.39 460.701L1919.85 476.555Z" fill="#F7991C"/>
<path d="M1919.85 1204.55L1892.39 1220.41L1892.39 1188.7L1919.85 1204.55Z" fill="#F7991C"/>
<path d="M1919.85 1652.41L1892.39 1668.26L1892.39 1636.55L1919.85 1652.41Z" fill="#F7991C"/>
<path d="M1919.85 1932.32L1892.39 1948.18L1892.39 1916.47L1919.85 1932.32Z" fill="#F7991C"/>
<path d="M1919.85 588.613L1892.39 604.467L1892.39 572.759L1919.85 588.613Z" fill="#F7991C"/>
<path d="M1919.85 1316.61L1892.39 1332.47L1892.39 1300.76L1919.85 1316.61Z" fill="#F7991C"/>
<path d="M1919.85 1764.47L1892.39 1780.32L1892.39 1748.61L1919.85 1764.47Z" fill="#F7991C"/>
<path d="M1919.85 2044.38L1892.39 2060.23L1892.39 2028.53L1919.85 2044.38Z" fill="#F7991C"/>
<path d="M1889.61 448.54L1862.15 464.394L1862.15 432.686L1889.61 448.54Z" fill="#F7991C"/>
<path d="M1889.61 1176.54L1862.15 1192.39L1862.15 1160.69L1889.61 1176.54Z" fill="#F7991C"/>
<path d="M1889.61 1624.39L1862.15 1640.25L1862.15 1608.54L1889.61 1624.39Z" fill="#F7991C"/>
<path d="M1889.61 1904.31L1862.15 1920.16L1862.15 1888.45L1889.61 1904.31Z" fill="#F7991C"/>
<path d="M1889.61 560.599L1862.15 576.453L1862.15 544.745L1889.61 560.599Z" fill="#F7991C"/>
<path d="M1889.61 1288.6L1862.15 1304.45L1862.15 1272.74L1889.61 1288.6Z" fill="#F7991C"/>
<path d="M1889.61 1736.45L1862.15 1752.31L1862.15 1720.6L1889.61 1736.45Z" fill="#F7991C"/>
<path d="M1889.61 2016.37L1862.15 2032.22L1862.15 2000.51L1889.61 2016.37Z" fill="#F7991C"/>
<path d="M1919.85 532.584L1892.39 548.438L1892.39 516.73L1919.85 532.584Z" fill="#F7991C"/>
<path d="M1919.85 1260.58L1892.39 1276.44L1892.39 1244.73L1919.85 1260.58Z" fill="#F7991C"/>
<path d="M1919.85 1708.44L1892.39 1724.29L1892.39 1692.58L1919.85 1708.44Z" fill="#F7991C"/>
<path d="M1919.85 1988.35L1892.39 2004.2L1892.39 1972.5L1919.85 1988.35Z" fill="#F7991C"/>
<path d="M1919.85 644.643L1892.39 660.496L1892.39 628.789L1919.85 644.643Z" fill="#F7991C"/>
<path d="M1919.85 1372.64L1892.39 1388.5L1892.39 1356.79L1919.85 1372.64Z" fill="#F7991C"/>
<path d="M1919.85 1820.5L1892.39 1836.35L1892.39 1804.64L1919.85 1820.5Z" fill="#F7991C"/>
<path d="M1919.85 2100.41L1892.39 2116.26L1892.39 2084.56L1919.85 2100.41Z" fill="#F7991C"/>
<path d="M1919.85 2156.29L1892.39 2172.15L1892.39 2140.44L1919.85 2156.29Z" fill="#F7991C"/>
<path d="M1889.61 504.569L1862.15 520.423L1862.15 488.715L1889.61 504.569Z" fill="#F7991C"/>
<path d="M1889.61 1232.57L1862.15 1248.42L1862.15 1216.72L1889.61 1232.57Z" fill="#F7991C"/>
<path d="M1889.61 1680.42L1862.15 1696.28L1862.15 1664.57L1889.61 1680.42Z" fill="#F7991C"/>
<path d="M1889.61 1960.34L1862.15 1976.19L1862.15 1944.48L1889.61 1960.34Z" fill="#F7991C"/>
<path d="M1889.61 616.628L1862.15 632.482L1862.15 600.774L1889.61 616.628Z" fill="#F7991C"/>
<path d="M1889.61 1344.63L1862.15 1360.48L1862.15 1328.77L1889.61 1344.63Z" fill="#F7991C"/>
<path d="M1889.61 1792.48L1862.15 1808.34L1862.15 1776.63L1889.61 1792.48Z" fill="#F7991C"/>
<path d="M1889.61 2072.39L1862.15 2088.25L1862.15 2056.54L1889.61 2072.39Z" fill="#F7991C"/>
<path d="M1889.61 2128.28L1862.15 2144.13L1862.15 2112.42L1889.61 2128.28Z" fill="#F7991C"/>
<path d="M1889.61 2184.31L1862.15 2200.16L1862.15 2168.45L1889.61 2184.31Z" fill="#F7991C"/>
<path d="M1892.39 0.306711L1919.85 -15.5472L1919.85 16.1607L1892.39 0.306711Z" fill="#052B36"/>
<path d="M1892.39 728.307L1919.85 712.453L1919.85 744.161L1892.39 728.307Z" fill="#052B36"/>
<path d="M1862.15 700.292L1889.61 684.438L1889.61 716.146L1862.15 700.292Z" fill="#052B36"/>
<path d="M1892.39 224.423L1919.85 208.569L1919.85 240.277L1892.39 224.423Z" fill="#052B36"/>
<path d="M1892.39 952.423L1919.85 936.569L1919.85 968.277L1892.39 952.423Z" fill="#052B36"/>
<path d="M1892.39 1400.28L1919.85 1384.42L1919.85 1416.13L1892.39 1400.28Z" fill="#052B36"/>
<path d="M1862.15 196.409L1889.61 180.555L1889.61 212.263L1862.15 196.409Z" fill="#052B36"/>
<path d="M1862.15 924.409L1889.61 908.555L1889.61 940.263L1862.15 924.409Z" fill="#052B36"/>
<path d="M1892.39 112.365L1919.85 96.5114L1919.85 128.219L1892.39 112.365Z" fill="#052B36"/>
<path d="M1892.39 840.365L1919.85 824.511L1919.85 856.219L1892.39 840.365Z" fill="#052B36"/>
<path d="M1862.15 84.3507L1889.61 68.4967L1889.61 100.205L1862.15 84.3507Z" fill="#052B36"/>
<path d="M1862.15 812.351L1889.61 796.497L1889.61 828.205L1862.15 812.351Z" fill="#052B36"/>
<path d="M1892.39 336.482L1919.85 320.628L1919.85 352.336L1892.39 336.482Z" fill="#052B36"/>
<path d="M1892.39 1064.48L1919.85 1048.63L1919.85 1080.34L1892.39 1064.48Z" fill="#052B36"/>
<path d="M1892.39 1512.34L1919.85 1496.48L1919.85 1528.19L1892.39 1512.34Z" fill="#052B36"/>
<path d="M1862.15 308.467L1889.61 292.613L1889.61 324.321L1862.15 308.467Z" fill="#052B36"/>
<path d="M1862.15 1036.47L1889.61 1020.61L1889.61 1052.32L1862.15 1036.47Z" fill="#052B36"/>
<path d="M1862.15 1484.32L1889.61 1468.47L1889.61 1500.18L1862.15 1484.32Z" fill="#052B36"/>
<path d="M1892.39 448.54L1919.85 432.686L1919.85 464.394L1892.39 448.54Z" fill="#052B36"/>
<path d="M1892.39 1176.54L1919.85 1160.69L1919.85 1192.39L1892.39 1176.54Z" fill="#052B36"/>
<path d="M1892.39 1624.39L1919.85 1608.54L1919.85 1640.25L1892.39 1624.39Z" fill="#052B36"/>
<path d="M1892.39 1904.31L1919.85 1888.45L1919.85 1920.16L1892.39 1904.31Z" fill="#052B36"/>
<path d="M1892.39 560.599L1919.85 544.745L1919.85 576.453L1892.39 560.599Z" fill="#052B36"/>
<path d="M1892.39 1288.6L1919.85 1272.74L1919.85 1304.45L1892.39 1288.6Z" fill="#052B36"/>
<path d="M1892.39 1736.45L1919.85 1720.6L1919.85 1752.31L1892.39 1736.45Z" fill="#052B36"/>
<path d="M1892.39 2016.37L1919.85 2000.51L1919.85 2032.22L1892.39 2016.37Z" fill="#052B36"/>
<path d="M1862.15 420.525L1889.61 404.672L1889.61 436.379L1862.15 420.525Z" fill="#052B36"/>
<path d="M1862.15 1148.53L1889.61 1132.67L1889.61 1164.38L1862.15 1148.53Z" fill="#052B36"/>
<path d="M1862.15 1596.38L1889.61 1580.53L1889.61 1612.23L1862.15 1596.38Z" fill="#052B36"/>
<path d="M1862.15 1876.29L1889.61 1860.44L1889.61 1892.15L1862.15 1876.29Z" fill="#052B36"/>
<path d="M1892.39 56.336L1919.85 40.4821L1919.85 72.19L1892.39 56.336Z" fill="#052B36"/>
<path d="M1892.39 784.336L1919.85 768.482L1919.85 800.19L1892.39 784.336Z" fill="#052B36"/>
<path d="M1862.15 28.3214L1889.61 12.4674L1889.61 44.1753L1862.15 28.3214Z" fill="#052B36"/>
<path d="M1862.15 756.321L1889.61 740.467L1889.61 772.175L1862.15 756.321Z" fill="#052B36"/>
<path d="M1892.39 280.453L1919.85 264.599L1919.85 296.307L1892.39 280.453Z" fill="#052B36"/>
<path d="M1892.39 1008.45L1919.85 992.599L1919.85 1024.31L1892.39 1008.45Z" fill="#052B36"/>
<path d="M1892.39 1456.31L1919.85 1440.45L1919.85 1472.16L1892.39 1456.31Z" fill="#052B36"/>
<path d="M1862.15 252.438L1889.61 236.584L1889.61 268.292L1862.15 252.438Z" fill="#052B36"/>
<path d="M1862.15 980.438L1889.61 964.584L1889.61 996.292L1862.15 980.438Z" fill="#052B36"/>
<path d="M1862.15 1428.29L1889.61 1412.44L1889.61 1444.15L1862.15 1428.29Z" fill="#052B36"/>
<path d="M1892.39 168.394L1919.85 152.54L1919.85 184.248L1892.39 168.394Z" fill="#052B36"/>
<path d="M1892.39 896.394L1919.85 880.54L1919.85 912.248L1892.39 896.394Z" fill="#052B36"/>
<path d="M1862.15 140.379L1889.61 124.526L1889.61 156.233L1862.15 140.379Z" fill="#052B36"/>
<path d="M1862.15 868.379L1889.61 852.526L1889.61 884.233L1862.15 868.379Z" fill="#052B36"/>
<path d="M1892.39 392.511L1919.85 376.657L1919.85 408.365L1892.39 392.511Z" fill="#052B36"/>
<path d="M1892.39 1120.51L1919.85 1104.66L1919.85 1136.36L1892.39 1120.51Z" fill="#052B36"/>
<path d="M1892.39 1568.36L1919.85 1552.51L1919.85 1584.22L1892.39 1568.36Z" fill="#052B36"/>
<path d="M1892.39 1848.28L1919.85 1832.42L1919.85 1864.13L1892.39 1848.28Z" fill="#052B36"/>
<path d="M1862.15 364.496L1889.61 348.642L1889.61 380.35L1862.15 364.496Z" fill="#052B36"/>
<path d="M1862.15 1092.5L1889.61 1076.64L1889.61 1108.35L1862.15 1092.5Z" fill="#052B36"/>
<path d="M1862.15 1540.35L1889.61 1524.5L1889.61 1556.2L1862.15 1540.35Z" fill="#052B36"/>
<path d="M1892.39 504.569L1919.85 488.715L1919.85 520.423L1892.39 504.569Z" fill="#052B36"/>
<path d="M1892.39 1232.57L1919.85 1216.72L1919.85 1248.42L1892.39 1232.57Z" fill="#052B36"/>
<path d="M1892.39 1680.42L1919.85 1664.57L1919.85 1696.28L1892.39 1680.42Z" fill="#052B36"/>
<path d="M1892.39 1960.34L1919.85 1944.48L1919.85 1976.19L1892.39 1960.34Z" fill="#052B36"/>
<path d="M1892.39 616.628L1919.85 600.774L1919.85 632.482L1892.39 616.628Z" fill="#052B36"/>
<path d="M1892.39 672.277L1919.85 656.423L1919.85 688.131L1892.39 672.277Z" fill="#052B36"/>
<path d="M1892.39 1344.63L1919.85 1328.77L1919.85 1360.48L1892.39 1344.63Z" fill="#052B36"/>
<path d="M1892.39 1792.48L1919.85 1776.63L1919.85 1808.34L1892.39 1792.48Z" fill="#052B36"/>
<path d="M1892.39 2072.39L1919.85 2056.54L1919.85 2088.25L1892.39 2072.39Z" fill="#052B36"/>
<path d="M1892.39 2128.28L1919.85 2112.42L1919.85 2144.13L1892.39 2128.28Z" fill="#052B36"/>
<path d="M1892.39 2184.31L1919.85 2168.45L1919.85 2200.16L1892.39 2184.31Z" fill="#052B36"/>
<path d="M1862.15 476.555L1889.61 460.701L1889.61 492.409L1862.15 476.555Z" fill="#052B36"/>
<path d="M1862.15 1204.55L1889.61 1188.7L1889.61 1220.41L1862.15 1204.55Z" fill="#052B36"/>
<path d="M1862.15 1652.41L1889.61 1636.55L1889.61 1668.26L1862.15 1652.41Z" fill="#052B36"/>
<path d="M1862.15 1932.32L1889.61 1916.47L1889.61 1948.18L1862.15 1932.32Z" fill="#052B36"/>
<path d="M1862.15 588.613L1889.61 572.759L1889.61 604.467L1862.15 588.613Z" fill="#052B36"/>
<path d="M1862.15 1316.61L1889.61 1300.76L1889.61 1332.47L1862.15 1316.61Z" fill="#052B36"/>
<path d="M1862.15 1764.47L1889.61 1748.61L1889.61 1780.32L1862.15 1764.47Z" fill="#052B36"/>
<path d="M1862.15 2044.38L1889.61 2028.53L1889.61 2060.23L1862.15 2044.38Z" fill="#052B36"/>
<path d="M1862.15 532.584L1889.61 516.73L1889.61 548.438L1862.15 532.584Z" fill="#052B36"/>
<path d="M1862.15 1260.58L1889.61 1244.73L1889.61 1276.44L1862.15 1260.58Z" fill="#052B36"/>
<path d="M1862.15 1708.44L1889.61 1692.58L1889.61 1724.29L1862.15 1708.44Z" fill="#052B36"/>
<path d="M1862.15 1988.35L1889.61 1972.5L1889.61 2004.2L1862.15 1988.35Z" fill="#052B36"/>
<path d="M1862.15 644.643L1889.61 628.789L1889.61 660.497L1862.15 644.643Z" fill="#052B36"/>
<path d="M1862.15 1372.64L1889.61 1356.79L1889.61 1388.5L1862.15 1372.64Z" fill="#052B36"/>
<path d="M1862.15 1820.5L1889.61 1804.64L1889.61 1836.35L1862.15 1820.5Z" fill="#052B36"/>
<path d="M1862.15 2100.41L1889.61 2084.56L1889.61 2116.26L1862.15 2100.41Z" fill="#052B36"/>
<path d="M1862.15 2156.29L1889.61 2140.44L1889.61 2172.15L1862.15 2156.29Z" fill="#052B36"/>
</g>
<defs>
<clipPath id="clip0_3872_2">
<rect width="1920" height="2185" fill="white"/>
</clipPath>
</defs>
</svg>
